# xmcd CD database file
#
# Track frame offsets:
#	150
#	20107
#	42170
#	61427
#	82150
#
# Disc length: 1379 seconds
#
# Revision: 0
# Processed by: cddbd v1.5.1PL0 Copyright (c) Steve Scherf et al.
# Submitted via: CDex 1.60beta1
#
DISCID=40056105
DTITLE=Maysa - What About Our Love ?
DYEAR=1900
DGENRE=Jazz
TTITLE0=What About Our Love ? (Ray Head Opaz Dope Remix - Rap Version)
TTITLE1=What About Our Love ? (R&B Remix - First Extended Version)
TTITLE2=What About Our Love ? (Instrumental Version)
TTITLE3=What About Our Love ? (A Cappella Version)
TTITLE4=What About Our Love ? (Album Version - Original Mix)
EXTD=
EXTT0=
EXTT1=
EXTT2=
EXTT3=
EXTT4=
PLAYORDER=
